<svg width="1200" height="720" viewBox="0 0 1200 720" fill="none" xmlns="http://www.w3.org/2000/svg">
<rect width="1200" height="720" rx="42" fill="#F8FAFC"/>
<path d="M0 470c190-90 325-55 480-112 175-64 285-30 430-110 110-60 196-34 290 5v467H0V470Z" fill="#DBEAFE"/>
<path d="M0 535c186-60 350-36 520-73 170-37 288-7 425-44 94-25 168-12 255 18v284H0V535Z" fill="#93C5FD"/>
<path d="M0 620c185-34 320-23 498-35 172-12 319 7 485-36 76-20 145-8 217 10v161H0V620Z" fill="#0077B6" opacity=".72"/>
<path d="M96 410c135-82 252-46 380-96 98-39 191-31 274 12 111 57 237 30 354-49" stroke="#2D6A4F" stroke-width="30" stroke-linecap="round"/>
<path d="M111 404c104-55 210-47 318-82 126-41 220-25 324 30 111 58 235 22 343-53" stroke="#22C55E" stroke-width="12" stroke-linecap="round" opacity=".5"/>
<rect x="165" y="168" width="70" height="190" rx="10" fill="white" stroke="#5B2A86" stroke-width="8"/>
<path d="M183 196h34M183 232h34M183 268h34M183 304h34" stroke="#0077B6" stroke-width="6"/>
<path d="M200 78c-39 65-66 105-66 148 0 43 30 72 66 72s66-29 66-72c0-43-27-83-66-148z" fill="#48CAE4" opacity=".85"/>
<rect x="835" y="175" width="44" height="325" rx="17" fill="white" stroke="#0F766E" stroke-width="8"/>
<path d="M857 202v260" stroke="#0077B6" stroke-width="8"/>
<path d="M826 260h65M826 325h65M826 390h65" stroke="#0F766E" stroke-width="6"/>
<path d="M538 120c-62 98-118 159-118 234 0 78 56 134 118 134s118-56 118-134c0-75-56-136-118-234z" fill="url(#drop)"/>
<path d="M451 360c55-27 111-26 176 0" stroke="white" stroke-width="14" stroke-linecap="round"/>
<path d="M452 405c56-26 112-26 172 0" stroke="white" stroke-width="11" stroke-linecap="round" opacity=".8"/>
<circle cx="330" cy="495" r="18" fill="#5B2A86"/><circle cx="610" cy="475" r="18" fill="#0077B6"/><circle cx="900" cy="440" r="18" fill="#2D6A4F"/><circle cx="1020" cy="520" r="18" fill="#48CAE4"/>
<defs><linearGradient id="drop" x1="420" y1="120" x2="656" y2="488"><stop stop-color="#48CAE4"/><stop offset="1" stop-color="#005CA8"/></linearGradient></defs>
</svg>