<svg width="520" height="160" viewBox="0 0 520 160" fill="none" xmlns="http://www.w3.org/2000/svg">
<rect width="520" height="160" rx="28" fill="white"/>
<circle cx="78" cy="80" r="52" fill="#ECFEFF" stroke="#5B2A86" stroke-width="5"/>
<path d="M78 29C60 56 47 72 47 91C47 110 61 124 78 124C95 124 109 110 109 91C109 72 96 56 78 29Z" fill="url(#g1)"/>
<path d="M53 91C69 83 84 84 102 93" stroke="white" stroke-width="6" stroke-linecap="round"/>
<path d="M55 106C70 99 84 99 100 106" stroke="white" stroke-width="5" stroke-linecap="round" opacity=".85"/>
<path d="M142 48h34v76h-34z" fill="#EFF6FF" stroke="#5B2A86" stroke-width="4"/>
<path d="M150 64h18M150 79h18M150 94h18M150 109h18" stroke="#0077B6" stroke-width="3"/>
<path d="M204 116c38-34 65-27 100-51 22-16 55-4 75 21 18 22 47 25 71 8" stroke="#2D6A4F" stroke-width="9" stroke-linecap="round"/>
<path d="M203 123c47-17 78-13 116-27 43-16 76 9 132 2" stroke="#48CAE4" stroke-width="7" stroke-linecap="round"/>
<text x="205" y="58" font-family="Arial, Helvetica, sans-serif" font-size="34" font-weight="900" fill="#172033">PSORE</text>
<text x="205" y="92" font-family="Arial, Helvetica, sans-serif" font-size="17" font-weight="700" fill="#5B2A86">Plateforme de Suivi et d'Observation</text>
<text x="205" y="118" font-family="Arial, Helvetica, sans-serif" font-size="18" font-weight="800" fill="#0077B6">des Ressources en Eau</text>
<defs><linearGradient id="g1" x1="47" y1="29" x2="109" y2="124"><stop stop-color="#48CAE4"/><stop offset="1" stop-color="#0077B6"/></linearGradient></defs>
</svg>